<svg id="svg" version="1.1" xmlns="http://www.w3.org/2000/svg" xmlns:xlink="http://www.w3.org/1999/xlink" width="400" height="400" viewBox="0, 0, 400,400"><g id="svgg"><path id="path0" d="M53.133 90.333 C 53.060 90.407,53.000 139.816,53.000 200.132 L 53.000 309.797 40.150 309.849 L 27.300 309.900 27.248 322.050 L 27.197 334.200 52.598 334.200 L 78.000 334.200 78.000 212.200 L 78.000 90.200 65.633 90.200 C 58.832 90.200,53.207 90.260,53.133 90.333 M138.600 90.427 C 138.600 90.695,140.657 101.601,142.499 111.100 C 143.203 114.730,144.686 122.515,145.795 128.400 C 146.905 134.285,148.482 142.565,149.300 146.800 C 150.119 151.035,152.096 161.385,153.694 169.800 C 160.911 207.807,162.692 217.163,163.993 223.900 C 164.758 227.860,165.666 232.630,166.010 234.500 C 166.355 236.370,166.684 238.035,166.741 238.200 C 166.798 238.365,168.305 232.200,170.091 224.500 C 179.000 186.082,177.987 191.376,177.205 187.300 C 176.993 186.200,176.587 184.040,176.300 182.500 C 175.868 180.173,175.392 177.777,174.691 174.400 C 174.634 174.125,173.600 168.635,172.393 162.200 C 169.053 144.390,168.999 144.102,168.374 141.000 C 167.878 138.533,166.213 129.768,162.887 112.100 C 162.493 110.010,161.852 106.680,161.461 104.700 C 161.070 102.720,160.286 98.670,159.717 95.700 L 158.684 90.300 148.642 90.248 C 141.170 90.210,138.600 90.255,138.600 90.427 M255.400 90.399 C 255.400 90.599,259.104 106.791,263.178 124.400 C 266.624 139.295,273.579 169.443,277.988 188.600 C 279.317 194.375,281.564 204.095,282.981 210.200 C 284.399 216.305,286.445 225.192,287.529 229.950 C 288.613 234.707,289.545 238.599,289.600 238.599 C 289.655 238.598,290.316 235.336,291.070 231.349 C 291.823 227.362,293.695 217.485,295.229 209.400 C 298.374 192.834,298.309 193.468,297.306 189.100 C 296.903 187.340,296.260 184.505,295.879 182.800 C 295.498 181.095,294.880 178.485,294.507 177.000 C 293.831 174.312,291.937 166.070,289.589 155.600 C 288.911 152.575,288.044 148.840,287.663 147.300 C 286.865 144.073,285.542 138.370,283.673 130.100 C 282.032 122.837,281.106 118.782,280.591 116.600 C 280.129 114.644,280.140 114.689,279.730 113.100 C 279.560 112.440,279.107 110.505,278.723 108.800 C 278.340 107.095,277.354 102.730,276.532 99.100 C 275.710 95.470,274.925 91.983,274.787 91.350 L 274.536 90.200 264.968 90.200 C 258.755 90.200,255.400 90.270,255.400 90.399 M367.132 90.650 C 367.070 90.898,365.979 95.825,364.707 101.600 C 363.434 107.375,361.407 116.510,360.202 121.900 C 358.996 127.290,355.801 141.690,353.102 153.900 C 350.402 166.110,347.297 180.105,346.203 185.000 C 343.678 196.294,334.985 235.519,334.303 238.700 C 334.020 240.020,333.029 244.475,332.101 248.600 C 330.718 254.750,322.653 291.116,319.360 306.050 L 318.533 309.800 302.578 309.800 C 293.803 309.800,286.576 309.876,286.519 309.970 C 286.439 310.099,287.502 314.628,288.309 317.600 C 288.411 317.974,291.006 328.685,291.751 331.800 L 292.300 334.100 317.826 334.151 L 343.353 334.202 343.476 333.751 C 343.544 333.503,343.827 332.265,344.105 331.000 C 344.382 329.735,344.697 328.340,344.805 327.900 C 344.912 327.460,345.592 324.355,346.315 321.000 C 348.857 309.217,349.923 304.371,350.100 303.800 C 350.222 303.408,350.649 301.567,351.167 299.200 C 351.707 296.736,354.449 284.174,355.096 281.200 C 355.682 278.507,356.986 272.656,357.112 272.150 C 357.161 271.957,357.240 271.643,357.289 271.450 C 357.470 270.740,358.616 265.699,358.887 264.421 C 360.320 257.676,363.767 242.025,364.398 239.400 C 365.199 236.066,365.672 233.939,367.712 224.500 C 370.237 212.811,371.029 209.228,371.400 207.800 C 371.615 206.975,371.976 205.445,372.204 204.400 C 372.431 203.355,372.702 202.140,372.806 201.700 C 372.911 201.260,373.765 197.345,374.705 193.000 C 376.601 184.235,377.786 178.915,378.379 176.500 C 378.596 175.620,378.955 174.045,379.178 173.000 C 379.401 171.955,380.262 167.995,381.091 164.200 C 381.921 160.405,382.882 155.995,383.226 154.400 C 383.840 151.564,385.134 145.796,385.291 145.200 C 385.605 144.011,386.284 141.059,386.786 138.700 C 388.371 131.244,391.836 115.432,392.000 114.900 C 392.102 114.570,392.224 114.072,392.272 113.794 C 392.319 113.516,392.455 112.931,392.574 112.494 C 392.807 111.637,393.866 106.835,395.816 97.800 C 396.493 94.665,397.126 92.015,397.223 91.910 C 397.321 91.806,397.400 91.378,397.400 90.960 L 397.400 90.200 382.322 90.200 L 367.243 90.200 367.132 90.650 M227.144 150.909 C 223.731 164.919,219.921 180.569,216.799 193.400 C 214.805 201.595,211.509 215.140,209.474 223.500 C 204.766 242.847,199.628 263.970,194.926 283.300 C 192.893 291.660,190.612 301.020,189.858 304.100 L 188.487 309.700 172.743 309.751 C 161.677 309.787,157.000 309.866,157.000 310.018 C 157.000 310.136,157.544 312.723,158.208 315.766 C 160.960 328.375,161.755 331.966,162.045 333.100 L 162.300 334.100 187.819 334.151 L 213.338 334.202 213.987 331.451 C 214.554 329.045,215.335 325.871,217.812 315.900 C 218.506 313.105,219.648 308.358,220.314 305.500 C 220.870 303.116,223.364 292.910,224.761 287.300 C 225.309 285.100,226.229 281.320,226.805 278.900 C 228.396 272.221,230.687 262.823,231.462 259.800 C 231.842 258.315,232.440 255.885,232.789 254.400 C 233.401 251.803,234.012 249.251,236.574 238.600 C 237.222 235.905,238.026 232.665,238.360 231.400 C 238.693 230.135,239.565 226.580,240.298 223.500 C 241.030 220.420,241.983 216.434,242.415 214.643 C 242.847 212.852,243.200 211.169,243.200 210.905 C 243.200 210.640,243.276 210.377,243.368 210.320 C 243.531 210.219,242.280 204.937,236.000 179.200 C 234.349 172.435,231.965 162.625,230.701 157.400 C 229.437 152.175,228.327 147.724,228.235 147.509 C 228.112 147.223,227.821 148.132,227.144 150.909 " stroke="none" fill="#538bbb" fill-rule="evenodd"></path><path id="path1" d="M3.733 66.733 C 3.660 66.807,3.600 121.302,3.600 187.833 L 3.600 308.800 27.800 308.800 L 52.000 308.800 52.000 187.700 L 52.000 66.600 27.933 66.600 C 14.697 66.600,3.807 66.660,3.733 66.733 M84.800 66.661 C 84.800 66.695,85.120 68.113,85.511 69.811 C 85.902 71.510,87.561 78.975,89.197 86.400 C 90.833 93.825,92.896 103.140,93.780 107.100 C 95.870 116.453,99.069 130.874,102.899 148.200 C 104.589 155.845,106.696 165.340,107.580 169.300 C 109.577 178.239,113.079 194.023,117.099 212.200 C 118.789 219.845,120.896 229.340,121.781 233.300 C 123.814 242.402,126.968 256.618,130.901 274.400 C 132.592 282.045,134.971 292.769,136.188 298.231 C 137.405 303.693,138.400 308.306,138.400 308.481 C 138.400 308.771,140.624 308.800,163.066 308.800 L 187.732 308.800 188.042 307.450 C 188.487 305.512,192.782 287.834,195.707 275.900 C 198.165 265.872,200.683 255.517,204.609 239.300 C 205.701 234.790,207.718 226.510,209.093 220.900 C 211.390 211.524,213.177 204.175,218.625 181.700 C 219.718 177.190,221.727 168.955,223.089 163.400 C 224.452 157.845,225.944 151.725,226.405 149.800 C 227.279 146.155,227.490 145.735,228.398 145.842 C 228.868 145.897,228.941 146.086,229.725 149.300 C 230.182 151.170,231.601 156.975,232.879 162.200 C 234.158 167.425,236.097 175.390,237.190 179.900 C 241.014 195.687,243.861 207.390,246.509 218.200 C 247.977 224.195,249.998 232.520,251.001 236.700 C 252.003 240.880,253.308 246.235,253.900 248.600 C 254.492 250.965,256.064 257.427,257.393 262.959 C 258.722 268.492,260.473 275.692,261.284 278.959 C 262.096 282.227,263.755 289.040,264.972 294.100 C 266.189 299.160,267.496 304.515,267.877 306.000 L 268.569 308.700 293.151 308.751 L 317.733 308.802 318.787 303.951 C 319.367 301.283,320.334 296.940,320.935 294.300 C 321.536 291.660,323.367 283.417,325.002 275.983 C 326.638 268.549,328.257 261.259,328.599 259.783 C 328.942 258.307,330.560 251.025,332.196 243.600 C 333.831 236.175,335.894 226.860,336.779 222.900 C 338.592 214.799,341.755 200.542,346.299 180.000 C 350.815 159.586,353.605 147.014,355.421 138.900 C 356.307 134.940,358.463 125.220,360.211 117.300 C 361.959 109.380,364.104 99.705,364.977 95.800 C 367.352 85.176,371.400 66.846,371.400 66.715 C 371.400 66.652,360.562 66.600,347.316 66.600 L 323.232 66.600 323.117 67.150 C 323.054 67.453,321.783 74.225,320.293 82.200 C 318.803 90.175,317.186 98.725,316.699 101.200 C 316.212 103.675,314.637 112.000,313.199 119.700 C 311.761 127.400,310.186 135.725,309.699 138.200 C 309.211 140.675,307.636 149.000,306.199 156.700 C 304.761 164.400,303.186 172.725,302.699 175.200 C 302.211 177.675,300.636 186.000,299.199 193.700 C 297.761 201.400,296.186 209.725,295.698 212.200 C 295.210 214.675,293.864 221.778,292.706 227.983 C 291.230 235.896,290.502 239.376,290.270 239.633 C 289.925 240.015,289.104 240.130,288.915 239.824 C 288.764 239.580,285.894 227.358,282.780 213.700 C 281.351 207.430,280.042 201.760,279.872 201.100 C 279.702 200.440,278.002 193.105,276.094 184.800 C 274.186 176.495,271.809 166.168,270.813 161.850 C 269.816 157.532,268.184 150.467,267.188 146.150 C 266.191 141.832,263.945 132.090,262.198 124.500 C 260.451 116.910,258.391 108.000,257.620 104.700 C 256.850 101.400,255.230 94.380,254.020 89.100 C 251.429 77.791,249.027 67.444,248.878 66.949 C 248.778 66.617,247.668 66.601,228.257 66.649 L 207.742 66.700 206.060 73.900 C 205.134 77.860,203.039 86.905,201.403 94.000 C 199.767 101.095,197.977 108.790,197.424 111.100 C 196.871 113.410,195.294 120.205,193.918 126.200 C 192.543 132.195,191.093 138.450,190.696 140.100 C 190.298 141.750,188.633 148.905,186.995 156.000 C 185.357 163.095,183.342 171.780,182.517 175.300 C 181.692 178.820,180.116 185.615,179.015 190.400 C 177.914 195.185,176.429 201.575,175.717 204.600 C 175.004 207.625,173.385 214.600,172.118 220.100 C 167.419 240.508,167.607 239.800,166.893 239.800 C 166.030 239.800,165.853 239.091,163.215 225.097 C 161.785 217.509,160.428 210.400,160.201 209.300 C 159.973 208.200,158.661 201.315,157.285 194.000 C 155.910 186.685,154.161 177.505,153.399 173.600 C 152.637 169.695,150.973 160.965,149.701 154.200 C 148.430 147.435,146.945 139.650,146.403 136.900 C 145.861 134.150,144.283 125.870,142.898 118.500 C 141.512 111.130,139.892 102.625,139.298 99.600 C 138.704 96.575,137.085 88.070,135.701 80.700 C 134.317 73.330,133.137 67.142,133.079 66.950 C 132.984 66.638,84.800 66.350,84.800 66.661 " stroke="none" fill="#fbfbfb" fill-rule="evenodd"></path><path id="path2" d="M2.600 187.798 L 2.600 309.797 14.850 309.848 C 21.588 309.877,32.928 309.876,40.050 309.847 L 53.000 309.794 53.000 206.130 C 53.000 149.115,53.060 94.216,53.133 84.133 L 53.266 65.800 27.933 65.800 L 2.600 65.800 2.600 187.798 M83.909 67.950 C 84.166 69.133,84.522 70.685,84.700 71.400 C 84.877 72.115,85.875 76.570,86.917 81.300 C 87.959 86.030,89.536 93.140,90.421 97.100 C 91.306 101.060,93.285 110.015,94.820 117.000 C 96.354 123.985,97.921 131.050,98.301 132.700 C 98.681 134.350,99.768 139.210,100.716 143.500 C 101.665 147.790,103.241 154.900,104.220 159.300 C 105.198 163.700,106.992 171.800,108.206 177.300 C 109.420 182.800,110.995 189.910,111.707 193.100 C 112.419 196.290,113.859 202.770,114.908 207.500 C 115.956 212.230,117.537 219.340,118.421 223.300 C 120.640 233.248,123.337 245.467,125.019 253.200 C 125.797 256.775,126.691 260.735,127.006 262.000 C 127.321 263.265,128.223 267.270,129.010 270.900 C 130.328 276.976,131.507 282.305,135.514 300.300 C 136.323 303.930,137.129 307.553,137.306 308.350 L 137.627 309.800 163.006 309.800 L 188.385 309.800 188.584 309.050 C 188.693 308.638,189.367 305.870,190.081 302.900 C 190.796 299.930,192.020 294.890,192.802 291.700 C 193.584 288.510,195.382 281.130,196.798 275.300 C 200.368 260.605,206.349 236.029,207.702 230.500 C 208.321 227.970,209.985 221.130,211.401 215.300 C 212.817 209.470,215.606 197.995,217.601 189.800 C 219.595 181.605,222.707 168.780,224.517 161.300 C 226.327 153.820,227.886 147.520,227.982 147.300 C 228.228 146.740,228.018 145.959,231.685 161.100 C 237.796 186.339,241.965 203.484,242.687 206.352 C 243.083 207.921,243.444 209.604,243.490 210.093 C 243.578 211.035,245.599 219.669,246.207 221.700 C 246.404 222.360,247.305 226.005,248.209 229.800 C 249.717 236.130,251.865 244.981,254.109 254.100 C 254.999 257.719,258.373 271.637,262.278 287.800 C 263.435 292.585,265.117 299.493,266.017 303.150 L 267.654 309.800 277.077 309.802 C 312.898 309.811,318.286 309.784,318.405 309.592 C 318.474 309.480,320.712 299.559,323.377 287.544 C 326.043 275.530,331.409 251.345,335.301 233.800 C 351.123 162.487,358.826 127.748,362.816 109.700 C 365.126 99.250,367.107 90.537,367.218 90.337 C 367.329 90.138,368.226 86.268,369.212 81.737 C 370.198 77.207,371.091 73.230,371.197 72.900 C 371.365 72.374,372.800 66.091,372.800 65.881 C 372.800 65.836,361.421 65.800,347.514 65.800 L 322.228 65.800 322.018 66.850 C 321.902 67.427,321.260 70.870,320.590 74.500 C 319.175 82.166,316.647 95.539,315.902 99.300 C 315.444 101.610,313.631 111.304,310.592 127.700 C 310.041 130.670,309.460 133.640,309.301 134.300 C 309.141 134.960,307.572 143.241,305.814 152.702 C 304.055 162.163,302.482 170.488,302.317 171.202 C 301.975 172.687,301.110 177.243,299.506 186.000 C 298.891 189.355,298.336 192.235,298.271 192.400 C 298.206 192.565,298.134 193.195,298.110 193.800 C 298.087 194.405,296.615 202.550,294.841 211.900 C 290.022 237.288,289.727 238.800,289.603 238.800 C 289.541 238.800,288.785 235.718,287.924 231.950 C 287.063 228.183,285.429 221.095,284.292 216.200 C 283.155 211.305,280.101 198.075,277.504 186.800 C 274.907 175.525,271.845 162.250,270.698 157.300 C 261.789 118.841,255.360 90.772,255.307 90.100 C 255.235 89.196,253.327 80.716,251.708 74.100 C 251.116 71.680,250.433 68.823,250.191 67.750 L 249.751 65.800 228.279 65.800 L 206.808 65.800 206.703 66.250 C 206.646 66.498,206.147 68.680,205.595 71.100 C 205.043 73.520,204.190 77.120,203.701 79.100 C 203.211 81.080,201.546 88.235,200.000 95.000 C 198.454 101.765,196.972 108.155,196.706 109.200 C 196.440 110.245,194.954 116.680,193.402 123.500 C 191.851 130.320,190.365 136.710,190.100 137.700 C 189.834 138.690,189.025 142.110,188.301 145.300 C 185.117 159.343,183.555 166.111,182.831 169.000 C 182.404 170.705,181.093 176.420,179.918 181.700 C 174.699 205.153,166.947 238.634,166.781 238.442 C 166.652 238.293,166.184 235.884,161.497 211.200 C 157.634 190.859,153.562 169.492,151.396 158.200 C 150.415 153.085,148.615 143.635,147.397 137.200 C 146.179 130.765,144.430 121.585,143.509 116.800 C 141.855 108.203,140.080 98.656,137.093 82.300 C 135.101 71.389,134.203 66.583,134.076 66.150 C 133.979 65.819,132.597 65.800,108.707 65.800 L 83.442 65.800 83.909 67.950 M52.200 187.801 L 52.200 309.002 27.850 308.951 L 3.500 308.900 3.450 187.750 L 3.400 66.600 27.800 66.600 L 52.200 66.600 52.200 187.801 M133.378 67.650 C 134.118 71.422,137.739 90.369,139.580 100.100 C 140.786 106.480,142.364 114.760,143.085 118.500 C 143.807 122.240,145.514 131.195,146.880 138.400 C 148.246 145.605,150.222 156.000,151.272 161.500 C 155.353 182.877,157.114 192.124,159.218 203.200 C 166.280 240.384,166.117 239.600,166.783 239.600 C 167.425 239.600,167.500 239.334,170.373 226.900 C 176.086 202.175,179.198 188.752,180.574 182.900 C 181.350 179.600,183.109 172.040,184.483 166.100 C 191.890 134.074,193.517 127.060,194.596 122.500 C 195.246 119.750,197.058 111.965,198.621 105.200 C 200.184 98.435,202.826 87.005,204.493 79.800 L 207.522 66.700 228.293 66.700 L 249.064 66.700 250.729 74.000 C 251.645 78.015,253.430 85.755,254.695 91.200 C 256.909 100.731,258.615 108.126,265.701 138.900 C 268.907 152.823,270.815 161.089,274.424 176.700 C 275.416 180.990,277.520 190.125,279.100 197.000 C 280.680 203.875,282.470 211.615,283.079 214.200 C 283.688 216.785,285.177 223.265,286.389 228.600 C 288.936 239.815,288.912 239.724,289.292 239.869 C 290.286 240.251,290.067 241.250,296.398 207.500 C 297.616 201.010,298.921 194.125,299.297 192.200 C 299.674 190.275,301.381 181.275,303.092 172.200 C 304.802 163.125,306.961 151.695,307.889 146.800 C 310.018 135.585,312.524 122.333,316.799 99.700 C 318.648 89.910,320.819 78.458,321.623 74.250 L 323.084 66.600 347.342 66.600 C 360.684 66.600,371.600 66.650,371.600 66.711 C 371.600 66.773,371.511 67.200,371.402 67.661 C 371.292 68.123,368.993 78.490,366.292 90.700 C 363.591 102.910,360.714 115.870,359.897 119.500 C 359.081 123.130,358.091 127.585,357.696 129.400 C 356.496 134.926,347.697 174.607,345.899 182.600 C 344.972 186.725,343.890 191.585,343.496 193.400 C 342.301 198.904,333.501 238.588,331.699 246.600 C 330.771 250.725,329.780 255.180,329.497 256.500 C 328.914 259.217,320.043 299.274,318.735 305.100 L 317.881 308.900 293.154 308.951 C 269.731 308.999,268.422 308.983,268.326 308.651 C 268.270 308.458,267.728 306.230,267.121 303.700 C 266.515 301.170,265.333 296.310,264.495 292.900 C 263.658 289.490,261.814 281.930,260.399 276.100 C 258.984 270.270,256.194 258.795,254.200 250.600 C 247.124 221.522,243.392 206.169,240.903 195.900 C 239.517 190.180,237.181 180.595,235.713 174.600 C 234.245 168.605,232.123 159.875,230.998 155.200 C 228.807 146.100,228.777 146.000,228.217 146.000 C 227.430 146.000,227.558 145.576,224.480 158.400 C 223.437 162.745,221.554 170.485,220.297 175.600 C 219.039 180.715,216.889 189.535,215.518 195.200 C 213.094 205.216,209.756 218.950,202.101 250.400 C 200.053 258.815,196.813 272.135,194.900 280.000 C 192.988 287.865,190.621 297.585,189.639 301.600 L 187.855 308.900 163.141 308.951 C 139.732 308.999,138.422 308.983,138.321 308.651 C 138.262 308.458,137.352 304.385,136.297 299.600 C 133.713 287.881,119.887 225.524,117.405 214.400 C 116.313 209.505,113.395 196.365,110.921 185.200 C 95.461 115.451,91.175 96.133,89.400 88.200 C 88.304 83.305,86.818 76.600,86.096 73.300 C 85.375 70.000,84.737 67.142,84.679 66.950 C 84.578 66.618,85.823 66.600,108.872 66.600 L 133.172 66.600 133.378 67.650 " stroke="none" fill="#080a0b" fill-rule="evenodd"></path><path id="path3" d="M52.099 187.800 C 52.099 254.295,52.122 281.498,52.150 248.250 C 52.178 215.003,52.178 160.598,52.150 127.350 C 52.122 94.103,52.099 121.305,52.099 187.800 " stroke="none" fill="#bcbcbc" fill-rule="evenodd"></path><path id="path4" d="M15.865 308.950 C 22.556 308.979,33.446 308.979,40.065 308.950 C 46.684 308.921,41.210 308.897,27.900 308.897 C 14.590 308.897,9.174 308.921,15.865 308.950 M150.865 308.950 C 157.667 308.979,168.737 308.979,175.465 308.950 C 182.194 308.921,176.630 308.897,163.100 308.897 C 149.570 308.897,144.064 308.921,150.865 308.950 M280.850 308.950 C 287.643 308.979,298.758 308.979,305.550 308.950 C 312.343 308.921,306.785 308.897,293.200 308.897 C 279.615 308.897,274.058 308.921,280.850 308.950 " stroke="none" fill="#848484" fill-rule="evenodd"></path><path id="path5" d="" stroke="none" fill="#a1a1a1" fill-rule="evenodd"></path><path id="path6" d="M3.450 187.638 C 3.422 254.264,3.467 308.818,3.550 308.869 C 3.685 308.953,3.685 228.527,3.550 110.400 C 3.522 86.255,3.477 121.012,3.450 187.638 " stroke="none" fill="#7c7c7c" fill-rule="evenodd"></path><path id="path7" d="" stroke="none" fill="#c4c4c4" fill-rule="evenodd"></path></g></svg>